<?xml version="1.0" standalone="no"?>
<!DOCTYPE svg PUBLIC "-//W3C//DTD SVG 20010904//EN"
 "http://www.w3.org/TR/2001/REC-SVG-20010904/DTD/svg10.dtd">
<svg version="1.0" xmlns="http://www.w3.org/2000/svg"
 width="618.000000pt" height="387.000000pt" viewBox="0 0 618.000000 387.000000"
 preserveAspectRatio="xMidYMid meet">

<g transform="translate(0.000000,387.000000) scale(0.100000,-0.100000)"
fill="#000000" stroke="none">
<path d="M2455 3850 c-13 -22 8 -69 60 -136 84 -106 83 -103 39 -160 -70 -91
-114 -219 -114 -329 0 -44 -6 -68 -21 -90 -71 -104 -129 -269 -129 -365 0
-118 43 -234 124 -333 26 -32 46 -60 44 -61 -2 -1 -23 -10 -48 -19 -83 -31
-173 -91 -252 -169 l-78 -77 -30 60 -30 59 -210 0 -210 0 0 -1105 0 -1105 215
0 215 0 2 642 3 642 210 -415 210 -414 145 -3 145 -2 210 415 c116 228 213
415 218 415 4 0 7 -288 7 -640 l0 -640 210 0 210 0 0 843 0 844 30 41 c25 35
36 42 64 42 71 0 66 63 66 -900 l0 -869 208 -3 207 -3 53 52 c63 63 86 75 217
120 55 18 124 49 153 69 51 34 107 104 118 152 4 12 9 22 13 22 3 0 33 -14 65
-30 101 -52 203 -38 342 46 48 29 71 37 124 40 129 8 211 43 324 139 36 30 71
55 79 55 9 0 67 -25 129 -55 114 -56 148 -62 148 -26 0 11 -33 33 -101 66
-125 62 -153 91 -168 176 -13 79 -66 188 -123 253 -62 72 -236 182 -256 161
-4 -4 4 -15 18 -24 60 -39 148 -122 190 -177 87 -114 106 -259 44 -346 -57
-81 -163 -133 -269 -131 -163 3 -362 135 -521 346 -79 105 -102 127 -89 86 53
-169 235 -400 363 -460 28 -13 50 -28 49 -34 -2 -5 -25 -21 -52 -35 -39 -20
-65 -25 -121 -25 -61 0 -77 4 -120 30 -54 34 -50 25 -74 190 -6 44 -27 126
-45 182 -58 175 -126 294 -320 564 -170 236 -165 227 -165 270 0 66 29 52 150
-71 59 -60 115 -110 124 -110 11 0 16 9 16 31 0 26 -18 50 -112 147 -62 63
-108 117 -102 119 7 2 80 -26 164 -62 161 -69 210 -79 210 -46 0 29 -61 74
-158 115 -106 46 -174 84 -168 95 8 12 666 35 817 28 203 -9 324 -47 414 -130
45 -41 71 -95 90 -186 6 -27 4 -33 -6 -28 -8 3 -57 25 -109 47 -52 23 -135 53
-185 65 -97 25 -256 37 -261 20 -2 -5 47 -25 108 -43 249 -73 422 -159 524
-260 63 -62 78 -97 70 -157 -6 -36 -13 -48 -36 -60 -59 -30 -64 -73 -17 -135
17 -24 38 -51 46 -62 12 -16 10 -23 -13 -58 -30 -45 -34 -96 -11 -139 27 -53
173 -166 191 -148 4 3 -28 45 -70 92 -42 47 -76 94 -76 104 0 11 14 45 30 76
17 31 30 63 30 70 0 7 -13 37 -29 67 -28 55 -28 55 -9 81 39 53 40 185 3 257
-9 18 -37 52 -61 76 -32 32 -44 53 -44 73 0 49 -28 178 -49 225 -10 25 -38 65
-60 89 l-41 45 69 55 c200 162 304 310 331 469 24 143 -24 282 -134 392 -34
34 -67 73 -73 88 -7 15 -30 36 -53 48 -45 23 -47 40 -9 89 26 33 24 52 -11 96
-17 21 -35 55 -42 77 -10 34 -9 45 11 86 22 45 120 197 177 275 22 30 25 40
15 50 -10 9 -16 8 -29 -9 -9 -12 -57 -72 -107 -133 -49 -62 -104 -135 -122
-162 -56 -90 -55 -170 3 -217 19 -15 34 -35 34 -44 0 -9 -18 -38 -40 -63 -22
-25 -40 -49 -40 -53 0 -21 35 -52 65 -58 50 -9 85 -40 85 -74 0 -40 -47 -185
-78 -244 -37 -69 -134 -153 -307 -268 -82 -55 -152 -104 -154 -110 -16 -45
339 137 420 215 75 73 144 185 168 275 7 23 16 42 21 42 18 0 97 -118 110
-164 7 -28 11 -77 8 -124 -7 -116 -55 -211 -162 -317 -44 -44 -114 -103 -155
-129 l-73 -49 -67 21 c-36 11 -93 26 -125 31 -84 15 -302 14 -491 -4 -88 -8
-226 -17 -307 -21 -129 -6 -148 -5 -148 8 0 25 71 47 234 75 163 27 201 38
191 53 -9 15 -70 12 -175 -10 -117 -24 -230 -27 -230 -5 0 18 15 28 183 128
76 45 174 109 220 142 114 83 359 330 436 440 80 114 174 306 201 410 43 166
31 148 140 220 122 82 182 138 178 167 -2 12 -8 23 -13 25 -6 2 -53 -28 -105
-67 -177 -131 -206 -136 -291 -55 -75 72 -133 98 -224 101 -67 2 -72 4 -112
42 -52 49 -114 71 -223 79 -99 6 -176 -10 -270 -57 -62 -32 -188 -142 -217
-192 -10 -15 -20 -28 -23 -28 -3 0 -21 26 -40 57 -51 83 -184 214 -250 246
-139 67 -293 75 -345 17 -16 -18 -19 -18 -48 -4 -150 78 -318 79 -440 4 -37
-23 -60 -30 -99 -30 -27 0 -79 -8 -114 -17 -63 -17 -64 -17 -110 5 -25 13 -70
45 -98 72 -50 47 -96 65 -96 38 0 -32 119 -161 175 -190 69 -36 92 -39 146
-18 61 24 149 26 191 4 233 -120 593 -591 702 -916 58 -171 52 -317 -12 -318
-21 0 -101 80 -165 165 -81 107 -188 217 -263 271 -60 43 -84 53 -84 36 0 -5
12 -19 26 -33 38 -35 160 -180 239 -284 108 -143 135 -218 100 -285 -29 -56
-85 -51 -343 31 -255 82 -380 109 -522 115 -88 4 -147 1 -198 -9 l-73 -14 -43
61 c-106 150 -136 266 -101 399 17 64 70 177 84 177 5 0 25 -22 45 -50 67 -93
179 -213 260 -277 86 -67 251 -159 260 -144 3 4 -52 51 -122 104 -140 106
-166 131 -240 229 -105 140 -139 257 -112 390 29 150 135 272 218 252 84 -21
230 -128 314 -233 34 -42 90 -120 125 -173 36 -54 69 -98 74 -98 13 0 12 5
-17 63 -114 227 -272 406 -452 512 -40 24 -88 46 -106 49 -25 5 -45 21 -82 68
-50 62 -127 128 -150 128 -7 0 -16 -5 -19 -10z m1065 -122 c30 -15 67 -35 82
-44 25 -17 28 -17 69 2 114 51 254 8 379 -115 112 -110 165 -209 216 -404 38
-147 45 -379 15 -521 -20 -97 -72 -226 -92 -226 -15 0 -29 47 -29 98 0 108
-69 413 -105 469 -17 25 -18 26 -31 8 -8 -11 -12 -26 -10 -34 22 -74 56 -296
56 -364 0 -91 -14 -130 -47 -135 -29 -4 -41 16 -103 168 -113 275 -289 578
-450 775 -36 44 -110 126 -164 183 -109 113 -111 118 -45 154 51 29 184 21
259 -14z m1283 -82 c46 -14 107 -51 107 -65 0 -5 -33 -36 -74 -69 -41 -34 -92
-87 -114 -119 -45 -66 -128 -228 -134 -259 -6 -41 14 -24 64 53 68 104 171
227 230 273 115 92 244 89 357 -6 49 -41 64 -79 63 -159 -2 -130 -62 -274
-206 -485 -151 -222 -430 -466 -658 -575 -80 -38 -103 -43 -112 -20 -9 25 2
39 111 136 113 101 253 253 253 275 0 41 -50 4 -198 -145 -153 -155 -199 -188
-224 -163 -7 7 1 51 26 138 63 227 69 265 69 444 1 182 -8 245 -55 397 l-31
101 38 52 c116 158 329 244 488 196z m-756 -1281 c110 -33 193 -146 192 -260
-1 -106 -50 -191 -138 -239 -113 -61 -235 -43 -327 49 -112 112 -111 268 2
382 76 77 165 99 271 68z m-952 -39 c33 -9 107 -33 165 -54 l105 -37 -93 -3
-92 -3 -46 -98 -46 -98 -126 -33 c-145 -37 -339 -105 -447 -156 -128 -61 -107
-75 27 -20 172 70 487 160 504 143 3 -3 -94 -215 -217 -471 -123 -256 -227
-462 -231 -458 -12 13 -488 1005 -488 1017 0 7 36 46 79 87 119 112 242 170
419 198 93 14 417 5 487 -14z m512 -478 c-2 -13 -4 -3 -4 22 0 25 2 35 4 23 2
-13 2 -33 0 -45z m653 -425 c329 -395 468 -896 293 -1059 -41 -38 -72 -52
-181 -80 -53 -13 -118 -38 -144 -54 l-48 -29 0 654 c0 360 2 655 4 655 2 0 36
-39 76 -87z"/>
<path d="M5944 3551 c-53 -32 -74 -68 -74 -125 0 -92 58 -149 151 -150 151 0
206 195 77 274 -42 26 -113 26 -154 1z m159 -39 c56 -57 45 -162 -23 -197 -86
-45 -180 13 -180 110 0 109 127 163 203 87z"/>
<path d="M5967 3493 c-4 -3 -7 -37 -7 -75 0 -54 3 -68 15 -68 10 0 15 10 15
30 0 22 5 30 18 30 23 0 42 -19 42 -42 0 -11 7 -18 20 -18 19 0 20 1 5 37 -11
25 -12 40 -5 47 16 16 12 44 -9 56 -22 11 -84 14 -94 3z m78 -38 c0 -14 -8
-21 -27 -23 -24 -3 -28 0 -28 23 0 23 4 26 28 23 19 -2 27 -9 27 -23z"/>
<path d="M10 1125 l0 -1105 476 0 476 0 -32 37 c-55 63 -74 117 -75 213 0 47
4 95 8 108 l8 22 -215 0 -216 0 0 270 0 270 435 0 435 0 0 190 0 190 -435 0
-435 0 0 265 0 265 515 0 515 0 0 190 0 190 -730 0 -730 0 0 -1105z"/>
<path d="M1125 516 c-183 -85 -209 -329 -47 -453 54 -41 111 -57 183 -50 70 6
125 34 173 87 50 56 68 102 68 175 0 73 -18 119 -69 175 -52 58 -122 90 -198
90 -42 0 -75 -7 -110 -24z"/>
</g>
</svg>
